<?xml version="1.0" encoding="utf-8"?>
<!-- Generator: Adobe Illustrator 19.2.1, SVG Export Plug-In . SVG Version: 6.00 Build 0)  -->
<svg version="1.1" id="Layer_1" xmlns="http://www.w3.org/2000/svg" xmlns:xlink="http://www.w3.org/1999/xlink" x="0px" y="0px"
	 viewBox="0 0 16 16" style="enable-background:new 0 0 16 16;" xml:space="preserve">
<style type="text/css">
	.st0{fill:#FF3333;}
	.st1{fill:#FEFEFE;}
</style>
<path class="st0" d="M13.6,5.8c-1.7-0.2-3.4-0.5-5.2-0.6C6.7,5.1,5,5.1,4.6,2.9c-0.1-0.6-0.7-0.5-1-0.7C3.3,2,2.9,2.2,2.8,2.4
	C2.7,2.6,2.7,3,2.9,3.1c1.2,0.9,1,2.4,1.6,3.5C4.4,7.7,4.8,8.7,5.1,9.7c0.3,2.3,0.4,2.5,2.8,2.5c1.6,0,3.2,0,4.8,0
	c0.6,0,1.4,0,1.5-0.6c0.1-1.1,1-2.1,0.7-3.3C15.9,6.4,15.8,6.1,13.6,5.8z"/>
<circle class="st1" cx="7.7" cy="14.4" r="1.1"/>
<circle class="st1" cx="12.2" cy="14.4" r="1.1"/>
<g>
	
		<ellipse transform="matrix(3.791635e-002 -0.9993 0.9993 3.791635e-002 -0.1477 14.2569)" class="st1" cx="7.3" cy="7.2" rx="0.6" ry="0.6"/>
	
		<ellipse transform="matrix(3.791635e-002 -0.9993 0.9993 3.791635e-002 1.4982 16.0951)" class="st1" cx="9.1" cy="7.3" rx="0.6" ry="0.6"/>
	
		<ellipse transform="matrix(3.791635e-002 -0.9993 0.9993 3.791635e-002 3.1589 17.9539)" class="st1" cx="10.9" cy="7.3" rx="0.6" ry="0.6"/>
	
		<ellipse transform="matrix(3.791635e-002 -0.9993 0.9993 3.791635e-002 4.8214 19.8173)" class="st1" cx="12.7" cy="7.4" rx="0.6" ry="0.6"/>
	
		<ellipse transform="matrix(3.791635e-002 -0.9993 0.9993 3.791635e-002 -2.0125 15.9155)" class="st1" cx="7.3" cy="9" rx="0.6" ry="0.6"/>
	
		<ellipse transform="matrix(3.791635e-002 -0.9993 0.9993 3.791635e-002 -0.3666 17.7537)" class="st1" cx="9" cy="9.1" rx="0.6" ry="0.6"/>
	
		<ellipse transform="matrix(3.791635e-002 -0.9993 0.9993 3.791635e-002 1.294 19.6125)" class="st1" cx="10.8" cy="9.1" rx="0.6" ry="0.6"/>
	
		<ellipse transform="matrix(3.791635e-002 -0.9993 0.9993 3.791635e-002 2.9566 21.4759)" class="st1" cx="12.6" cy="9.2" rx="0.6" ry="0.6"/>
	
		<ellipse transform="matrix(3.791635e-002 -0.9993 0.9993 3.791635e-002 -3.8759 17.5781)" class="st1" cx="7.2" cy="10.8" rx="0.6" ry="0.6"/>
	
		<ellipse transform="matrix(3.791635e-002 -0.9993 0.9993 3.791635e-002 -2.23 19.4163)" class="st1" cx="9" cy="10.9" rx="0.6" ry="0.6"/>
	
		<ellipse transform="matrix(3.791635e-002 -0.9993 0.9993 3.791635e-002 -0.5694 21.2751)" class="st1" cx="10.8" cy="10.9" rx="0.6" ry="0.6"/>
	
		<ellipse transform="matrix(3.791635e-002 -0.9993 0.9993 3.791635e-002 1.0932 23.1385)" class="st1" cx="12.6" cy="11" rx="0.6" ry="0.6"/>
</g>
<circle class="st0" cx="1.5" cy="1.5" r="1"/>
</svg>
